<?xml version="1.0" encoding="UTF-8"?>
<svg width="100" height="55" version="1.1" xml:space="preserve" xmlns="http://www.w3.org/2000/svg"><path d="m64.35 1.001c-2.302-0.01934-4.832 0.3471-7.574 1.073 11.15-0.07672 15.54 4.592 17.94 10.65-6.032-7.95-13.59-10.39-21.37-8.364-8.442 2.2-12.52 10.56-17.14 11.8-6.552-8.572-14.55-11.75-23.1-12.86v4.178c-1.669-0.2701-3.222-0.4474-4.506-0.4096v3.768c-1.655-0.2203-2.981-0.2519-4.096-0.1636v3.85h-4.506v36.95h30.23c3.709 3.38 8.508 3.421 11.39 0h24.58c1.503 0.05962 9.552-2.79 9.093-12.12 1.577 3.864 1.856 7.802-4.588 12.12 3.182-0.1783 6.453 0.02177 8.438-5.243 2.791 3.461 8.73 0.6811 11.06 7.045 2.949-1.147 6.827-3.444 5.652-9.83 1.24-1.52 1.241-2.967 1.778-4.554 0 0 1.774-2.136 2.072-2.655 0.2984-0.5188 0.587-2.193-0.2456-3.113-2.799-3.093-8.684-9.011-8.684-9.011 0.05906-0.8094 0.162-1.611 0-2.458-1.186-1.859-3.466-3.669-5.57-5.653 1.494-3.54 0.663-6.644-2.786-9.257 0.7567 2.25 1.006 4.457-0.08201 6.554-0.2079-4.044-0.627-9.422-10.08-12.04 5.581 4.014 6.376 7.581 6.226 11.06-2.377-7.724-7.231-11.26-14.14-11.31zm-49.03 4.76c7.514 1.707 14.45 4.773 19.58 12.12v2.716l2.23-0.8146v-1.271c3.839-1.054 8.433-8.007 14.82-10.06 5.578-1.789 11.75-0.4427 15.39 2.199l-2.267 0.4169c-2.114-1.065-6.215-2.708-12.49-0.8906-6.277 1.818-10.73 10.48-17.68 12.2-4.167 1.029-7.617-0.1013-7.617-0.1013 2.045 1.285 4.903 3.003 7.617 2.896 10.71-0.4219 13.59-14.17 26.27-11.21l-0.4446 1.292c-13.21-0.7625-16.39 13.02-23.6 15.12v-3.544l-2.23 0.01699v4.229c-2.908 0.9819-5.848 1.015-8.834-0.3188 2.06 2.256 5.656 3.797 8.834 3.62 12.13-0.6748 13.65-14.91 25.81-14.41l0.0645 1.185c-10.8 0.312-11.72 14.58-25.87 14.97-0.9786 0.02707-2.925-0.2608-2.925-0.2608l2.925 1.767v8.598c-8.435-10.78-17.47-12.1-19.58-12.86zm-4.465 3.522 2.458 0.4506v25.44c8.005 1.215 13.69 5.137 18.43 10.16-6.207-4.207-12.74-7.694-20.89-7.578zm-4.219 3.604 2.089 0.1041 0.04055 26.73c15.22 0.6958 18.57 4.948 22 7.291-4.028-1.516-13.2-6.243-24.13-4.301zm60.49 0.3723c1.997 0.02651 4.175 1.03 4.968 2.762l-1.147 1.229c-1.561-1.763-3.77-2.11-5.07-0.9353-1.301 1.175-0.7699 4.06 0.1755 5.564l-0.8192 0.7164c-2.277-1.972-3.653-5.747-1.168-8.274 0.7295-0.7416 1.862-1.077 3.061-1.062zm11.61 2.121c1.452-0.03623 3.043 0.4128 4.661 1.603 0 0 3.3 2.924 4.833 4.506 0.5919 0.6107 0.7571 1.266 0.7376 1.966-0.04043 1.456 0.1172 1.505 0.5732 2.048 2.774 3.302 7.977 7.755 8.684 9.339-1.825 0.08675-3.74 0.2719-5.161-0.08201l-1.393-0.9007c-0.8822-0.5287-0.4042 0.3024-0.2308 0.8293 0 0.3699 1.923 2.042 2.983 3.127 0.8381 0.857 1.849 1.985-1.335 4.284-1.998 1.443-4.754 1.399-7.262 1.171-3.801-0.3453-4.775-4.697-2.715-6.544 0.7573-0.6792 2.101-2.527-2.007-2.622-5.603-0.1295-7.597-1.116-8.929-5.653-0.6977 2.118-3.039 4.503-4.924 7.271-1.302 1.911-2.086 4.198-3.186 5.919-5.026 7.859-10.78 7.2-16.22 7.209 9.445-1.484 12.22-3.935 15.11-9.012 0.7994-1.402 2.093-4.542 3.71-6.509 2.214-2.694 5.008-5.19 5.424-10.2-3.46 4.508-10.55 7.179-13.11 12.78-1.581 3.683-3.903 6.348-6.703 7.931-3.411 1.928-7.533 2.467-11.89 4.029 3.473-3.282 7.614-2.502 12.69-6.802 3.529-2.989 5.116-10.01 9.083-12.29 6.166-3.544 9.585-7.058 10.18-8.84 0.6771-2.045 3.203-4.473 6.398-4.553zm-74.21 1.255v28.59c8.448-2.082 17.02-0.6127 25.68 3.748-9.205-2.621-18.35-3.751-27.34-0.6146v-31.67h1.528zm77.55 6.861c-1.447-0.02123-3.085 0.4485-4.2 1.101 1.255 0.2781 2.437 1.22 3.591 1.941 0.8322 0.5194 1.919 0.4353 2.693 0.4054 0.805 0.07603 1.802 2.044 3.389 3.041-0.2425-1.104-1.182-2.591-2.404-4.055-0.2917-0.9803-0.576-2.397-3.07-2.433zm-20.39 2.294c-9.009 4.551-8.045 8.404-12.25 12.24-4.101 3.744-9.579 4.186-12.31 9.222v-9.053c13.86 1.471 13-11.35 24.56-12.41zm10.98 8.162c-0.2958 16.29-10.67 15.25-10.8 15.23 9.599-4.44 7.442-9.849 10.8-15.23zm19.8 11.09c1.194-0.4364 1.593-0.922 1.694-0.4596 0.4819 2.205-0.4181 4.54-2.846 6.19-0.5112-1.503-2.319-2.923-5.349-4.308 5.416-0.8723 5.946-1.22 6.5-1.423z" fill="#902920" fill-opacity=".9073" stroke-width=".2359"/></svg>
